<?xml version="1.0" encoding="utf-8"?>
<!-- Generator: Adobe Illustrator 23.0.1, SVG Export Plug-In . SVG Version: 6.00 Build 0)  -->
<svg version="1.1" id="Layer_1" xmlns="http://www.w3.org/2000/svg" xmlns:xlink="http://www.w3.org/1999/xlink" x="0px" y="0px"
	 viewBox="0 0 96 96" style="enable-background:new 0 0 96 96;" xml:space="preserve">
<style type="text/css">
	.st0{fill:#C4143E;}
	.st1{fill:#01161E;}
</style>
<g>
	<polygon class="st0" points="0,35.77 0,60.57 17.34,48.14 	"/>
</g>
<g>
	<path class="st1" d="M32.79,73.61l-20.15,9.14l-12.3-21.3l17.97-12.93L32.79,73.61z M77.78,47.62l17.98-12.9L83.42,13.36
		l-20.13,9.18L77.78,47.62z M13.34,83.41l21.34,12.32l-2.09-21.07L13.34,83.41z M82.84,12.69L61.4,0.31l2.1,21.16L82.84,12.69z
		 M62.68,22.02L60.45,0L35.81,0l-2.29,22.02H62.68z M32.74,22.48l-20.13-9.19L0.17,34.84l18.02,12.84L32.74,22.48z M34.85,0.16
		L13.28,12.62l19.42,8.87L34.85,0.16z M96,60.31V35.63L78.75,48L96,60.31z M61.25,95.77l21.37-12.34l-19.23-8.79L61.25,95.77z
		 M77.78,48.38L63.21,73.6l20.11,9.21l12.47-21.59L77.78,48.38z M33.4,73.98L35.54,96h24.81l2.23-22.02H33.4z"/>
</g>
</svg>
